PathFileType	4	(X/Y/Z)	/Users/rkoike/Documents/python/sports2d/webcam_20250606_145141/webcam_20250606_145141_px_person00.trc
DataRate	CameraRate	NumFrames	NumMarkers	Units	OrigDataRate	OrigDataStartFrame	OrigNumFrames
30	30	9	22	m	30	2013	4026
Frame#	Time	Hip			RHip			RKnee			RAnkle			RBigToe			RSmallToe			RHeel			LHip			LKnee			LAnkle			LBigToe			LSmallToe			LHeel			Neck			Head			Nose			RShoulder			RElbow			RWrist			LShoulder			LElbow			LWrist			
		X1	Y1	Z1	X2	Y2	Z2	X3	Y3	Z3	X4	Y4	Z4	X5	Y5	Z5	X6	Y6	Z6	X7	Y7	Z7	X8	Y8	Z8	X9	Y9	Z9	X10	Y10	Z10	X11	Y11	Z11	X12	Y12	Z12	X13	Y13	Z13	X14	Y14	Z14	X15	Y15	Z15	X16	Y16	Z16	X17	Y17	Z17	X18	Y18	Z18	X19	Y19	Z19	X20	Y20	Z20	X21	Y21	Z21	X22	Y22	Z22
2013	67.11667080745342	590.8926671952518	707.5583557608014	0.0	454.49315912081016	706.0655792835335	0.0	199.80225415661397	730.9756919119498	0.0	469.2787006825124	691.7066100545621	0.0			0.0	1216.587890625	110.494140625	0.0			0.0	715.2522173999425	699.1438395467814	0.0	854.3009940480424	689.0502987609407	0.0	954.2962422002433	700.3676375816644	0.0	1049.5675449983692	631.079417364846	0.0	1049.5675449983692	648.4014724190506	0.0	910.9911045647317	735.0117476900746	0.0	578.1384508273851	388.35537073433136	0.0	540.2610218616355	131.91294986796242	0.0	530.7482628063497	269.7174369336171	0.0	410.5831702436588	468.66178231152776	0.0	240.24889158426026	682.1874263284351	0.0	181.40186581836502	568.1428958305493	0.0	768.5292186265112	458.7504900132013	0.0	930.4331525378516	689.3585657942326	0.0	900.9326900416147	668.0892127182121	0.0
2014	67.15001242236025	592.1047186682691	702.1517351544916	0.0	452.63977181190654	699.8799379648175	0.0	199.80247844778307	730.975969928732	0.0	469.2787006825124	691.7066100545621	0.0			0.0	1216.587890625	110.494140625	0.0			0.0	718.7395017215638	692.0525493528064	0.0	854.3019848471117	689.0531628332286	0.0	954.2962422002433	700.3676375816644	0.0	1049.5675449983692	631.079417364846	0.0	1049.5675449983692	648.4014724190506	0.0	910.9911045647317	735.0117476900746	0.0	581.4044534220569	392.0194800158831	0.0	541.9761004661834	133.89507230466333	0.0	528.4099519097571	269.63207547640013	0.0	414.9125771477604	468.91249335647404	0.0	242.67429723840323	678.2653170102304	0.0	174.95989530127457	559.7914077216042	0.0	768.525632779013	460.8175985867694	0.0	937.5663474119851	695.8544673315238	0.0	899.9512338871581	663.7592490843064	0.0
2015	67.18335403726708	593.4291680643574	704.1312213925779	0.0	453.2770648210634	701.5061289563338	0.0	199.80250883642574	730.9760075993473	0.0	469.2787006825124	691.7066100545621	0.0			0.0	1216.587890625	110.494140625	0.0			0.0	721.199940780947	692.8806081647396	0.0	854.3029849083522	689.0560539186021	0.0	954.2962422002433	700.3676375816644	0.0	1049.5675449983692	631.079417364846	0.0	1049.5675449983692	648.4014724190506	0.0	910.9911045647317	735.0117476900746	0.0	584.986828702663	393.9477744433017	0.0	542.4885497376016	135.16344395524533	0.0	527.4815589935628	270.4499652234795	0.0	419.55852346132025	468.82625909098374	0.0	247.72394313606054	676.276177697234	0.0	170.66356019055618	550.8312416472779	0.0	771.8178270601003	461.0449219777321	0.0	943.8227100848069	702.4749316875075	0.0	895.5717118583046	657.4021239421685	0.0
2016	67.21669565217391	593.6353249231821	719.9069990636465	0.0	459.3105129195266	717.850866511003	0.0	199.80247614114725	730.9759670897118	0.0	469.2787006825124	691.7066100545621	0.0			0.0	1216.587890625	110.494140625	0.0			0.0	721.5048425492123	708.631811590751	0.0	854.3031607414671	689.0565613922994	0.0	954.2962422002433	700.3676375816644	0.0	1049.5675449983692	631.079417364846	0.0	1049.5675449983692	648.4014724190506	0.0	910.9911045647317	735.0117476900746	0.0	588.4683655789387	392.4128605270626	0.0	540.7241898700819	135.30392235946056	0.0	528.8209321649612	272.66187805010907	0.0	423.8862172843238	467.98989222602097	0.0	256.6156318531783	679.5375103508591	0.0	174.1696728824068	540.9377656023022	0.0	780.1517499509114	457.5046463982623	0.0	948.2347187150609	708.9364629145693	0.0	885.0163966393524	643.3708592417081	0.0
2017	67.25003726708074	591.212864954973	739.2132959085875	0.0	468.3314477740723	738.477910715813	0.0	199.80245810441792	730.9759447530473	0.0	469.2787006825124	691.7066100545621	0.0			0.0	1216.587890625	110.494140625	0.0			0.0	720.2797390533797	729.0061867525974	0.0	854.3030299294221	689.0561828183351	0.0	954.2962422002433	700.3676375816644	0.0	1049.5675449983692	631.079417364846	0.0	1049.5675449983692	648.4014724190506	0.0	910.9911045647317	735.0117476900746	0.0	590.6354452109191	389.36042493915704	0.0	538.6219722813362	135.54358899488332	0.0	531.428577369314	275.1366792002211	0.0	426.8448511230968	466.44974177653086	0.0	265.6425904697516	687.604291435889	0.0	187.81320572706417	531.808864002009	0.0	787.257117387504	451.6724154251508	0.0	951.164299086122	713.1140742741305	0.0	872.9346698134258	620.404038427248	0.0
2018	67.28337888198757	585.9978997357216	742.9642210863319	0.0	473.96247987050845	743.239724861402	0.0	199.80245785880908	730.9759443973688	0.0	469.2787006825124	691.7066100545621	0.0			0.0	1216.587890625	110.494140625	0.0			0.0	719.3479237859135	733.8404939306017	0.0	854.3029457189365	689.0559437513945	0.0	954.2962422002433	700.3676375816644	0.0	1049.5675449983692	631.079417364846	0.0	1049.5675449983692	648.4014724190506	0.0	910.9911045647317	735.0117476900746	0.0	590.4947598512894	388.8749747072167	0.0	539.855564456628	137.3522176078685	0.0	532.8494316214747	275.758620335631	0.0	428.01598890045443	464.6404534530364	0.0	268.6069589305932	695.4937673918081	0.0	207.31807571147291	525.3833957993661	0.0	783.6218357687154	447.4970288967964	0.0	953.8384507469722	713.2393056114171	0.0	868.4712170897153	593.5351610518042	0.0
2019	67.3167204968944	580.4032628528447	731.3964584352781	0.0	474.50428695077414	731.1532678068854	0.0	199.80246135463779	730.9759485282148	0.0	469.2787006825124	691.7066100545621	0.0			0.0	1216.587890625	110.494140625	0.0			0.0	718.5819908400139	722.1123071500668	0.0	854.3029372897585	689.055929808702	0.0	954.2962422002433	700.3676375816644	0.0	1049.5675449983692	631.079417364846	0.0	1049.5675449983692	648.4014724190506	0.0	910.9911045647317	735.0117476900746	0.0	588.3658061118289	390.6682421411783	0.0	544.8933403379152	139.03591376408062	0.0	532.442814876235	274.1828343688963	0.0	428.10278239448706	462.74206425932243	0.0	264.112360135316	699.1486292472182	0.0	226.38168254959763	520.0572343410529	0.0	769.9623763552615	445.94786005811136	0.0	955.5165019536485	711.2010498889513	0.0	872.658783893184	566.6978152536982	0.0
2020	67.35006211180124	578.6248367419702	721.5053197910121	0.0	473.4441282955654	719.0251627777429	0.0	199.8024627099116	730.9759500878425	0.0	469.2787006825124	691.7066100545621	0.0			0.0	1216.587890625	110.494140625	0.0			0.0	716.9410926879991	711.0368062995049	0.0	854.3029525014798	689.0559709657065	0.0	954.2962422002433	700.3676375816644	0.0	1049.5675449983692	631.079417364846	0.0	1049.5675449983692	648.4014724190506	0.0	910.9911045647317	735.0117476900746	0.0	585.6809995053885	391.15164848587295	0.0	550.4682918441365	137.80431214096578	0.0	532.308457209231	272.8196183384138	0.0	427.74506456006384	461.34259924573445	0.0	255.5643603701661	698.0205045791446	0.0	239.5092493595156	512.3716537680383	0.0	757.4309272001483	445.87872543501743	0.0	954.3044617777742	710.2031599367257	0.0	875.6817664014667	540.4354952096201	0.0
2021	67.38340372670807	582.0928554852807	718.3324924166645	0.0	472.673354480938	713.6880132629412	0.0	199.80246227578917	730.9759503563179	0.0	469.2787006825124	691.7066100545621	0.0			0.0	1216.587890625	110.494140625	0.0			0.0	716.6882910138326	707.638523171095	0.0	854.3029781828433	689.0559865832628	0.0	954.2962422002433	700.3676375816644	0.0	1049.5675449983692	631.079417364846	0.0	1049.5675449983692	648.4014724190506	0.0	910.9911045647317	735.0117476900746	0.0	584.2234160201414	390.93353474470206	0.0	553.6566166540485	135.87385381710672	0.0	534.1014208726914	274.3139864391915	0.0	426.5973757406876	461.9007231248325	0.0	246.60176596833287	694.346637768558	0.0	242.38891555260568	503.3160168842409	0.0	754.5390667497173	448.3827922355289	0.0	951.9519851742917	709.6856502619808	0.0	867.6164260231906	516.9721250954456	0.0
